<svg width="50" height="50" viewBox="0 0 50 50" fill="none" xmlns="http://www.w3.org/2000/svg">
<circle cx="25" cy="25" r="25" fill="#3C80E4"/>
<path d="M25.2847 11.0498C24.7705 10.7893 23.9135 10.4507 23.3729 10.3074C19.5757 9.31755 15.6994 10.7633 13.5108 13.9934C12.5615 15.387 12.1527 16.6635 12.0736 18.4348L12.0077 19.8806L11.0848 20.0238C9.7663 20.2322 8.65878 20.8183 7.70948 21.8082C6.77337 22.7981 6.29872 23.7359 6.07458 24.9993C5.87681 26.1845 6.07459 27.4609 6.64153 28.6071C7.10299 29.5318 8.35553 30.8083 9.22572 31.2511C10.5837 31.9284 10.2278 31.9153 25.377 31.9153H25.3781C39.445 31.9153 39.4451 31.9153 40.2097 31.6418C41.1327 31.2902 42.1347 30.4045 42.583 29.5058C43.0313 28.6462 43.1236 27.4088 42.8335 26.4189C42.4116 24.9732 40.9613 23.6838 39.5505 23.5014C39.2077 23.4493 38.9045 23.3712 38.8649 23.3191C38.8385 23.28 38.8913 22.9544 38.9967 22.6027C38.087 19.6722 34.0339 14.9331 30.1498 15.0484C29.2796 15.4261 29.4115 15.5043 28.6468 14.2018C28.0403 13.1468 26.4581 11.662 25.2847 11.0498Z" fill="white"/>
<path d="M25.8252 37.9458C25.9307 37.4118 25.6934 36.8126 25.2715 36.5391C24.1376 35.8097 22.6873 37.0992 23.307 38.2974C23.8871 39.3915 25.6011 39.1571 25.8252 37.9458Z" fill="white"/>
</svg>
